<svg xmlns="http://www.w3.org/2000/svg" width="750" height="500" fill="none" viewBox="0 0 750 500">
  <path fill="#EBEBEB" d="M73.39 67.83a68.06 68.06 0 0 0-4.61 21.06H50.12v-.52c.05-.48.11-1 .15-1.43a50.586 50.586 0 0 1 1.24-7.35 57.198 57.198 0 0 1 4.14-11.5.42.42 0 0 1 .45-.27h17.29v.01Zm-.57 47.05H55.68a.38.38 0 0 1-.41-.27 52.262 52.262 0 0 1-4.26-13 53.238 53.238 0 0 1-.84-6.56 2.258 2.258 0 0 0-.05-.22v-.52h18.33c.34 0 .32 0 .35.34.11 1.5.21 3 .35 4.49a59.995 59.995 0 0 0 1.15 7.06 62.885 62.885 0 0 0 2.44 8.39c.03.1.05.18.08.29Zm72.09 5.43c-.06.1-.1.18-.15.25a51.195 51.195 0 0 1-4.86 6.3 48.038 48.038 0 0 1-7.11 6.56 50.843 50.843 0 0 1-16.68 8.36 52.91 52.91 0 0 1-7.11 1.52c-.24 0-.47.08-.7.12h-.42l-.39-.25.45-.33a54.684 54.684 0 0 0 13.52-13.11 62.56 62.56 0 0 0 5.52-9.16.388.388 0 0 1 .42-.27h17.54l-.03.01Zm-17.15-31.43h-24.08v-21h18.8a.35.35 0 0 1 .38.25 58.553 58.553 0 0 1 3.83 12.33c.43 2.205.74 4.432.93 6.67.04.54.09 1.13.14 1.75Zm-.14 5.61c0 .5 0 1-.07 1.48-.11 1.18-.19 2.35-.36 3.52-.22 1.61-.47 3.22-.79 4.82a57.631 57.631 0 0 1-3.12 10.27.41.41 0 0 1-.44.31h-19.3v-20.4h24.08ZM98.26 68v21H74.75c0-.53 0-1.06.1-1.58.12-1.17.22-2.36.4-3.53.29-1.78.6-3.57 1-5.34a54.15 54.15 0 0 1 3.4-10.36A.36.36 0 0 1 80 68h18.26Zm.02 26.77v20.11H79.49a.381.381 0 0 1-.41-.27 53.449 53.449 0 0 1-3.2-10.61 97.44 97.44 0 0 1-.86-5.65c-.16-1.23-.19-2.48-.28-3.73v-.13H98c.23-.03.28.05.28.28ZM153.29 89h-19.73A68.44 68.44 0 0 0 129 67.83h18.39a.4.4 0 0 1 .43.26 51.787 51.787 0 0 1 4.55 13.19 55.546 55.546 0 0 1 1 7.4c-.07.1-.08.21-.08.32Zm.02 5.33c0 .48 0 .93-.07 1.38a52.345 52.345 0 0 1-.65 5.31 51.715 51.715 0 0 1-3.59 11.85c-.27.61-.56 1.22-.84 1.82a.268.268 0 0 1-.29.19h-18.35l.64-1.85a64.485 64.485 0 0 0 3.29-16.77c0-.56.07-1.13.1-1.7 0-.15 0-.22.2-.21.063.005.127.005.19 0l19.37-.02Zm-8.94-31.87a.534.534 0 0 0 0 .08h-17.55a.391.391 0 0 1-.41-.24 59.302 59.302 0 0 0-8.57-12.69 47.119 47.119 0 0 0-6.57-6.06c-1.18-.91-2.4-1.76-3.6-2.63l-.2-.15.24-.16c0-.11-.07-.22-.11-.38a51.628 51.628 0 0 1 36.77 22.23Zm-49.46 80.72a1.73 1.73 0 0 1-.5.08 46.68 46.68 0 0 1-5.62-1.09 50.612 50.612 0 0 1-20.22-10.41 48.787 48.787 0 0 1-6.14-6.14 51.322 51.322 0 0 1-3.83-5.3l-.08-.16h16.35a.404.404 0 0 1 .41.26 62.087 62.087 0 0 0 5.9 9.63 61.242 61.242 0 0 0 6.92 7.66 53.818 53.818 0 0 0 6.67 5.36l.14.11ZM94.7 40.75c-.73.53-1.6 1.14-2.43 1.78a60.083 60.083 0 0 0-7.79 7.25 54.541 54.541 0 0 0-8.17 11.65c-.14.27-.26.55-.41.8a.38.38 0 0 1-.25.16H59.06C67.81 50 79.57 42.61 94.52 40.34l-.1.21.28.2Zm25.88 79.57a56.626 56.626 0 0 1-8 10.76 50.179 50.179 0 0 1-9.09 7.71v-18.47h17.09Zm-22.33.01v18.11a52.456 52.456 0 0 1-16.34-18.11h16.34ZM120 62.38h-16.31V45.13a49.986 49.986 0 0 1 9.17 7.68 57.615 57.615 0 0 1 7.14 9.57ZM98.26 45.67v16.85h-15.7a49.67 49.67 0 0 1 15.7-16.85Z"/>
  <path stroke="#EBEBEB" stroke-miterlimit="10" d="M679.76 52.34H445.43v176.95h234.33V52.34Z"/>
  <path stroke="#EBEBEB" stroke-miterlimit="10" d="M679.76 52.34H445.43V64.1h234.33V52.34Z"/>
  <path fill="#C7C7C7" d="M456.46 58.3a2.998 2.998 0 0 1-1.852 2.771 2.999 2.999 0 1 1 1.852-2.771Z"/>
  <path fill="#EBEBEB" d="M468.54 58.3a2.998 2.998 0 0 1-1.852 2.771 2.999 2.999 0 1 1 1.852-2.771Z"/>
  <path fill="#fff" d="M480.61 58.3a2.998 2.998 0 0 1-1.852 2.771 2.999 2.999 0 1 1 1.852-2.771Z"/>
  <path stroke="#EBEBEB" stroke-miterlimit="10" d="M188.54 155.58H59.26v93.13h129.28v-93.13Z"/>
  <path stroke="#EBEBEB" stroke-miterlimit="10" d="M188.54 155.58H59.26v11.76h129.28v-11.76Z"/>
  <path fill="#C7C7C7" d="M70.29 161.54a3.001 3.001 0 0 1-5.103 2.189 3.003 3.003 0 0 1 .431-4.63 2.998 2.998 0 0 1 3.776.352 3 3 0 0 1 .896 2.089Z"/>
  <path fill="#EBEBEB" d="M82.37 161.54a3 3 0 1 1-6 .1 3 3 0 0 1 6-.1Z"/>
  <path fill="#fff" d="M94.44 161.54a3 3 0 1 1-6 .1 3 3 0 0 1 6-.1Z"/>
  <path fill="#263238" d="m50.72 424.48 81.07-.24 81.07-.09 162.14-.17 162.14.17 81.07.08 81.07.25-81.07.24-81.07.09-162.14.17-162.14-.17-81.07-.09-81.07-.24Z"/>
  <path fill="#fff" d="M661.16 77.91H88.99v346.05h572.17V77.91Z"/>
  <path fill="#EBEBEB" d="M661.16 424 89 424.34h-.37V424L88.5 78v-.5h.5l572.17.21h.29V78l-.3 346Zm0 0-.29-346 .29.29L89 78.41l.5-.5-.13 346-.37-.37 572.16.46Z"/>
  <path fill="#EBEBEB" d="M158.24 133.94h-15.25v2.45h15.25v-2.45Zm0 10.99h-15.25v2.45h15.25v-2.45Zm0-5.44h-15.25v2.45h15.25v-2.45Z"/>
  <path fill="#fff" d="M290.64 223.8H164.92v3.71h125.72v-3.71Z"/>
  <path fill="#DBDBDB" d="M143 248.23c10.25-.2 20.49-.29 30.74-.37l30.74-.11 30.75.11 15.37.14 15.37.23-15.37.24-15.37.13-30.75.11-30.74-.11c-10.26-.08-20.5-.17-30.74-.37Zm0 9.77c10.25-.2 20.49-.29 30.74-.37l30.74-.11 30.75.11 15.37.13 15.4.24-15.37.23-15.37.13-30.75.11-30.74-.11c-10.29-.08-20.53-.18-30.77-.36Zm0 9.74c10.25-.2 20.49-.29 30.74-.36l30.74-.12 30.75.11 15.37.14 15.37.23-15.37.24-15.37.13-30.75.11-30.74-.11c-10.26-.11-20.5-.17-30.74-.37Zm0 19.51c10.25-.19 20.49-.29 30.74-.36l30.74-.11 30.75.11 15.37.13 15.37.23-15.37.24-15.37.13-30.75.11-30.74-.11c-10.26-.08-20.5-.17-30.74-.37Zm0 9.75c10.25-.2 20.49-.29 30.74-.37l30.74-.11 30.75.11 15.37.13 15.4.24-15.37.23-15.37.14-30.75.11-30.74-.11c-10.29-.07-20.53-.16-30.77-.37Zm0 9.77c6.24-.2 12.47-.29 18.71-.37 6.24-.08 12.47-.07 18.71-.11 6.24-.04 12.47 0 18.71.11l9.35.13c3.12.08 6.24.13 9.35.24-3.11.1-6.23.15-9.35.23l-9.35.13c-6.24.08-12.48.08-18.71.11s-12.48 0-18.71-.11-12.48-.13-18.71-.36Z"/>
  <path fill="#263238" d="M151.11 203.68h3.58l7.94 20.87h-4.17l-1.94-5.2h-7.3l-1.91 5.2h-4.17l7.97-20.87Zm4.67 12.82-2.88-8.21-3 8.21h5.88Zm25.96 2.67a4.753 4.753 0 0 1-2 4 7.02 7.02 0 0 1-2.15 1 9.515 9.515 0 0 1-2.6.35h-10.07v-20.84h11.18a4.072 4.072 0 0 1 2 .47 4.906 4.906 0 0 1 1.49 1.22c.432.503.77 1.078 1 1.7a5.685 5.685 0 0 1-.43 4.79c-.5.896-1.285 1.6-2.23 2a5.35 5.35 0 0 1 2.84 1.9 5.497 5.497 0 0 1 .97 3.41Zm-12.76-12v5.26h5.41a2.418 2.418 0 0 0 1.75-.71 2.586 2.586 0 0 0 .72-1.94 2.688 2.688 0 0 0-.66-1.91 2.15 2.15 0 0 0-1.63-.7h-5.59Zm8.67 11.26a2.991 2.991 0 0 0-.19-1.08 2.87 2.87 0 0 0-.51-.89 2.39 2.39 0 0 0-.77-.61 2.203 2.203 0 0 0-1-.22H169v5.5h6a2.764 2.764 0 0 0 1-.2c.316-.136.601-.333.84-.58.24-.252.43-.547.56-.87.152-.337.237-.701.25-1.07v.02Zm16.17 6.27a9.473 9.473 0 0 1-4.16-.9 10.273 10.273 0 0 1-3.2-2.38 11.118 11.118 0 0 1-2.81-7.31 10.41 10.41 0 0 1 .78-4 10.868 10.868 0 0 1 2.15-3.39 10.166 10.166 0 0 1 3.25-2.33 9.556 9.556 0 0 1 4.08-.87 9.105 9.105 0 0 1 4.13.93 10.097 10.097 0 0 1 3.19 2.42 11.266 11.266 0 0 1 2.06 3.41c.484 1.236.735 2.552.74 3.88a10.806 10.806 0 0 1-2.89 7.34 10.234 10.234 0 0 1-3.23 2.32 9.621 9.621 0 0 1-4.09.88Zm-6-10.59a8.21 8.21 0 0 0 .41 2.62c.257.813.66 1.572 1.19 2.24a5.998 5.998 0 0 0 1.91 1.55 5.384 5.384 0 0 0 2.57.59 5.527 5.527 0 0 0 2.61-.6 6.003 6.003 0 0 0 1.91-1.6 7.106 7.106 0 0 0 1.17-2.25 8.208 8.208 0 0 0 .4-2.55 7.937 7.937 0 0 0-.43-2.61 7.081 7.081 0 0 0-1.2-2.24 5.845 5.845 0 0 0-1.91-1.54 5.615 5.615 0 0 0-2.55-.57 5.527 5.527 0 0 0-2.61.6 5.699 5.699 0 0 0-1.91 1.59 7.194 7.194 0 0 0-1.17 2.23 8.475 8.475 0 0 0-.44 2.54h.05Zm28.18 7a4.607 4.607 0 0 0 2.43-.59c.632-.38 1.169-.9 1.57-1.52a6.286 6.286 0 0 0 .85-2.16c.164-.826.248-1.667.25-2.51v-10.65h4v10.64a15.387 15.387 0 0 1-.52 4 9.132 9.132 0 0 1-1.62 3.29 7.76 7.76 0 0 1-2.83 2.24 9.741 9.741 0 0 1-4.15.82 9.495 9.495 0 0 1-4.25-.87 7.92 7.92 0 0 1-2.83-2.29 9.223 9.223 0 0 1-1.58-3.31 15.764 15.764 0 0 1-.48-3.91v-10.61h4.06v10.64c-.005.853.079 1.704.25 2.54.145.761.434 1.487.85 2.14a4.568 4.568 0 0 0 1.57 1.52c.741.416 1.581.62 2.43.59Zm28.8-13.88h-6.67v17.32h-4v-17.32h-6.67v-3.55h17.34v3.55Z"/>
  <path fill="#fff" d="M199.56 326.86h-56.57v15.56h56.57v-15.56Z"/>
  <path fill="#fff" d="M150.26 337v-4.77h.47v4.35h2.75v.42h-3.22Zm7.12-.4v.4h-3.21v-4.77h3.15v.42h-2.68v1.72H157v.39h-2.33v1.82l2.71.02Zm2.36-4.35h.4l2 4.77h-.5l-.62-1.49h-2.14l-.61 1.49h-.5l1.97-4.77Zm1.15 2.91-1-2.36-1 2.36h2Zm1.91 1.84v-4.77h2c.197.001.392.045.57.13.169.09.321.209.45.35.123.142.221.305.29.48.067.172.101.355.1.54.002.169-.022.338-.07.5a1.576 1.576 0 0 1-.22.43 1.13 1.13 0 0 1-.33.32 1.084 1.084 0 0 1-.44.18l1.17 1.84h-.53l-1.12-1.76h-1.41V337h-.46Zm.47-2.17h1.56a.828.828 0 0 0 .38-.1 1 1 0 0 0 .29-.24c.081-.106.145-.224.19-.35.04-.133.06-.271.06-.41a1.126 1.126 0 0 0-.28-.76 1.003 1.003 0 0 0-.31-.23.805.805 0 0 0-.37-.09h-1.52v2.18Zm4.38-1.7V337h-.47v-4.77h.37l3.15 4v-4h.47V337h-.41l-3.11-3.87ZM178.3 337v-3.91l-1.74 3h-.27l-1.74-3V337h-.47v-4.77h.48l1.86 3.27 1.88-3.27h.47V337h-.47Zm3.59.05a2.002 2.002 0 0 1-.91-.2 2.402 2.402 0 0 1-.71-.54 2.562 2.562 0 0 1-.45-2.59c.113-.283.275-.544.48-.77.198-.223.44-.403.71-.53a2 2 0 0 1 .88-.2c.316-.003.627.069.91.21.272.137.513.328.71.56.194.228.346.489.45.77.107.281.161.579.16.88.004.315-.053.627-.17.92a2.52 2.52 0 0 1-.47.77c-.201.22-.442.4-.71.53a2.01 2.01 0 0 1-.88.19Zm-1.77-2.41c-.003.256.042.51.13.75.076.232.198.447.36.63.153.187.344.34.56.45.223.111.471.166.72.16.253.002.504-.057.73-.17.214-.117.404-.273.56-.46.153-.191.272-.408.35-.64a2.26 2.26 0 0 0 .12-.72 2.13 2.13 0 0 0-.13-.75 2.348 2.348 0 0 0-.36-.64 2.01 2.01 0 0 0-.56-.44 1.545 1.545 0 0 0-.71-.16 1.636 1.636 0 0 0-.74.17 1.826 1.826 0 0 0-.55.45 2.229 2.229 0 0 0-.35.64 2 2 0 0 0-.13.73ZM185 337v-4.77h2c.197.001.392.045.57.13.169.09.321.209.45.35.123.142.221.305.29.48.067.172.101.355.1.54a1.42 1.42 0 0 1-.08.5 1.547 1.547 0 0 1-.21.43 1.13 1.13 0 0 1-.33.32c-.132.09-.282.152-.44.18l1.17 1.84H188l-1.12-1.76h-1.41V337H185Zm.47-2.17H187a.867.867 0 0 0 .38-.1 1 1 0 0 0 .29-.24c.081-.106.145-.224.19-.35.04-.133.06-.271.06-.41a1.145 1.145 0 0 0-.07-.41 1.701 1.701 0 0 0-.21-.35 1.003 1.003 0 0 0-.31-.23.805.805 0 0 0-.37-.09h-1.52l.03 2.18Zm7.12 1.77v.4h-3.2v-4.77h3.14v.42h-2.67v1.72h2.33v.39h-2.33v1.82l2.73.02Z"/>
  <path fill="#37474F" d="M661.16 77.91H88.99v8.96h572.17v-8.96Z"/>
  <path fill="#C7C7C7" d="M96.11 82.39a2.22 2.22 0 1 1-2.22-2.22 2.23 2.23 0 0 1 2.22 2.22Z"/>
  <path fill="#fff" d="M105.18 82.39a2.217 2.217 0 0 1-2.668 2.174A2.22 2.22 0 0 1 103 80.17a2.229 2.229 0 0 1 2.18 2.22Zm9.07 0a2.225 2.225 0 0 1-1.364 2.048 2.218 2.218 0 0 1-3.03-1.597 2.216 2.216 0 0 1 .919-2.282A2.219 2.219 0 0 1 112 80.17a2.229 2.229 0 0 1 2.25 2.22Z"/>
  <path fill="#DBDBDB" d="M661.16 86.87h-9.83v337.1h9.83V86.87Z"/>
  <path fill="#A6A6A6" d="M656.24 203.73a2.542 2.542 0 0 1-1.799-.741 2.527 2.527 0 0 1-.741-1.799V91.38a2.552 2.552 0 0 1 .744-1.796 2.542 2.542 0 0 1 1.796-.744 2.537 2.537 0 0 1 2.347 1.568c.127.308.193.638.193.972v109.81a2.542 2.542 0 0 1-2.54 2.54Z"/>
  <path fill="#EBEBEB" d="M547.27 319.91v39.43h39.43v-39.43h-39.43Zm3 36.45v-33.47h33.46v33.47h-33.46Z"/>
  <path fill="#455A64" d="M565.36 251H450v115.36h115.36V251Z"/>
  <path fill="#263238" d="M472.23 366.36h64.18c.27-2.45-9.56-54.6-21.1-71.37-1.31-1.9-12.54-3.29-16.66 1.44-21.82 25.07-26.94 69.33-26.42 69.93Z"/>
  <path fill="#EB9481" d="M516.83 299.32c1.82 4.72 8.69 21.26 12.43 33.14 2.5 8 3.46 14.65 4 16.41 0 0-19-6.08-23.22-6.09-6.57 0-17.11 13.7-14.53 15.42 4.07 2.71 23.44 11.9 38.92 14.79 8.41 1.57 24.25-9.12 23-17.62-1.75-11.93-23.31-43.37-31.51-52.29-4.25-4.63-11.32-9.51-9.09-3.76Z"/>
  <path fill="#263238" d="M558.6 357.89c-.4 8.59-11.15 15.83-17.38 16.21-10.75.65-43-8.74-43-8.74l12.53-24.16s22 7.45 22.51 7.66c-.19-.64-5.6-21-8-27.69-.13-.37-.28-.75-.42-1.15-.7-1.87-1.65-4.33-2.71-7-.58-1.48-1.2-3-1.81-4.54-2.65-6.58-5.23-12.85-5.23-12.85 3.69.61 7.34 2.55 13.33 8.84s30.83 39.25 30.18 53.42Z"/>
  <path fill="#37474F" d="M506.6 360.13c.9-1.71 1.81-3.41 2.7-5.12.89-1.71 1.78-3.34 2.68-5a58.313 58.313 0 0 0 2.65-5.24s0-.07 0 0a44.04 44.04 0 0 0-3 4.75c-.96 1.667-1.9 3.353-2.82 5.06a394.722 394.722 0 0 0-2.65 5 42.213 42.213 0 0 0-2.42 5.36c0 .08.07.15.12.08a51.118 51.118 0 0 0 2.74-4.89Zm33.37-7.7-6.7-3.56c-.19-.64-5.6-21-8-27.69-.13-.37-.28-.75-.42-1.15-.7-1.87-1.65-4.33-2.71-7l17.83 39.4Z"/>
  <path fill="#37474F" d="M545.51 355.38a54.93 54.93 0 0 0-5.88-3.78c-1-.57-2-1.1-3.1-1.57s-2.32-.87-3.44-1.38c-.09 0-.15.1-.06.13 1 .48 2 1.14 3.05 1.69 1.05.55 2.1 1.13 3.16 1.68 2.09 1.07 4.14 2.21 6.22 3.31.05.03.14-.05.05-.08Z"/>
  <path fill="#EB9481" d="M540.6 350.17c-1.69 0-11.84-2.69-13.32-1.29-9 8.49-11.86 6.78-13.78 7.89-14.85 8.54-34.69 18.58-41.77 18.64-10.73.09-15-8.92-13.22-17.43 3.53-16.83 26.22-49.64 36.49-58.36 5.45-4.62 5 2.35 2.76 9.91-1.32 4.44-3.63 11-6 17.51-2.09 5.77-7.62 20.51-7.72 20.86h.11c.48-.09 13.18-6.07 25.95-9.36 4.5-1.16 13.87-2.81 17.23-1.31 2 .89 2 2.09 2 2.09a4.917 4.917 0 0 1 3.3 1.24 4.746 4.746 0 0 1 1.46 2.23 5.002 5.002 0 0 1 2.67 1.26 4.572 4.572 0 0 1 1.18 2.49c2.45.71 2.66 3.63 2.66 3.63Z"/>
  <path fill="#263238" d="M525.6 339.08c-1.343.04-2.681.191-4 .45-.09 0-.09.15 0 .14 1.3-.14 2.63-.17 3.94-.21 1.31-.04 2.63-.07 3.94-.05a21.2 21.2 0 0 0-3.88-.33Zm8.53 3.7a16.264 16.264 0 0 0-7.09-.63.084.084 0 0 0-.038.029.086.086 0 0 0-.014.046c0 .016.005.032.014.046a.084.084 0 0 0 .038.029c2.376-.128 4.759.05 7.09.53 0 0 .03-.04 0-.05Zm3.87 3.76a15.94 15.94 0 0 0-6.72-1.26c-.09 0-.12.13 0 .14 2.265.211 4.506.619 6.7 1.22.04.01.07-.08.02-.1Zm-28.47-7.78a28.77 28.77 0 0 0-3.32.74c-1.17.29-2.33.6-3.46 1a63.766 63.766 0 0 0-6.68 2.65.076.076 0 0 0-.033-.005.069.069 0 0 0-.032.012.07.07 0 0 0 .032.127c.011.002.022 0 .033-.004 2.22-.78 4.47-1.51 6.72-2.21l3.3-1.08c1.13-.37 2.31-.65 3.42-1.07.09-.05.09-.17.02-.16Z"/>
  <path fill="#263238" d="M500.6 341.17a12.277 12.277 0 0 1 3.42-.8l13.36 22.56s-36.81 13.25-44.36 14a15.068 15.068 0 0 1-16.3-14.67c-.21-13.33 21.54-45.35 32.48-57.74 5-5.67 10.85-9.79 12.34-8.86 1.76 1.1-1.43 8.23-3.12 13.55-3.11 9.83-14.26 38.73-14.26 38.73s13.68-5.86 16.44-6.77Z"/>
  <path fill="#37474F" d="M503.94 340.35c-2.08.12-11 3.24-15.44 5.13a76.072 76.072 0 0 0-12.55 6.78c-2.23 1.51-4.36 3.15-6.45 4.85a.064.064 0 0 0-.02.02.085.085 0 0 0-.011.026.066.066 0 0 0 0 .028.085.085 0 0 0 .011.026.064.064 0 0 0 .02.02.085.085 0 0 0 .026.011.066.066 0 0 0 .028 0 .085.085 0 0 0 .026-.011 133.146 133.146 0 0 1 25-13.59c2.51-1 6.83-2.44 9.28-3.08.66-.18.14-.22.08-.21Z"/>
  <path fill="#37474F" d="M495.11 320.62c-.56.9-1.13 1.8-1.61 2.75l-.06.14c.71-2.17 1.39-4.34 2-6.53 0-.13-.18-.2-.23-.07-3.16 8-6.1 16.11-8.95 24.24-.79 2.28-1.49 4.57-2.21 6.87 0 .08.1.12.13 0 .87-2 1.75-3.92 2.54-5.93s1.54-4 2.28-6a255.887 255.887 0 0 0 3.76-10.65c.37-.62.75-1.25 1.11-1.88.51-.93.94-1.9 1.37-2.87.08-.1-.07-.17-.13-.07Zm13.35 37.39c-1-1.66-1.94-3.33-2.92-5s-1.89-3.27-2.83-4.91a56.778 56.778 0 0 0-3.05-5h-.06a42.59 42.59 0 0 0 2.46 5c.91 1.7 1.85 3.39 2.8 5.07.95 1.68 1.89 3.28 2.86 4.9a43.397 43.397 0 0 0 3.28 4.9c.05.06.16 0 .13-.07a50.192 50.192 0 0 0-2.67-4.89Z"/>
  <path fill="#37474F" d="M517.95 362.98c-1.11-2.19-2.83-4.33-4.11-6.41 0-.08-.16 0-.12.08 1.16 1.95 2.22 4.05 3.33 6-5.05 2.09-10.42 3.95-15.58 5.78s-10.61 3.65-16 5.21c-3 .87-6 1.81-9.07 2.61-.19 0-.14.2.05.16a136.133 136.133 0 0 0 16.15-4.25c5.39-1.71 10.72-3.62 16-5.6 2.94-1.12 9.44-3.41 9.35-3.58Z"/>
  <path fill="#EB9481" d="M509.19 338.77a179.758 179.758 0 0 0-18.53 6.11l-.27.1c-3.16 1.24-5.11 2.16-5.58 2.24l-.1-.06a3.981 3.981 0 0 0-1-.54c-.89-.32-9.44-1.39-9.22-4 .22-2.61 3.69-2.45 4.2-2.42-.55-.12-5.19-1.21-3.68-3.52 1.07-1.65 5.66-1.41 6.13-1.39-.47-.15-4.74-1.54-3.27-3.91 1.05-1.69 6.18-1.47 6.77-1.37-.48-.18-4.28-.82-2.5-2.86 1.23-1.42 10.89 0 15.19 2.17 6.4 3.14 11.86 9.45 11.86 9.45Z"/>
  <path fill="#263238" d="m490.66 344.88-.27.1a30.996 30.996 0 0 0-11.5-4.69c-.28 0-.3-.19 0-.18a21.315 21.315 0 0 1 11.77 4.77Zm-9.29-9.46c6.08 1.2 8.83 2.55 14.07 5.87.07.05.15-.06.08-.11-4.88-3.65-7.91-5.46-14.1-5.92-.28-.02-.33.1-.05.16Zm3.48-5.34c5.84 1.56 8.92 2.9 13.62 6.71.11.09.25 0 .14-.15a21.88 21.88 0 0 0-13.7-6.72c-.38-.04-.43.07-.06.16Z"/>
  <path fill="#EB9481" d="M514.09 306.67c-3.46 1.24-10.18-3.49-13.09-7.62-.19-.29-.09-3.52-.15-7.45 0-2.39-.16-5-.44-7.46l15.58 2a39.042 39.042 0 0 0-.41 9.45c.044.339.118.674.22 1v.16c.56 1.79 1.63 8.72-1.71 9.92Z"/>
  <path fill="#263238" d="M515.84 296.69c.035.111.062.225.08.34-9.32-.4-12.87-4.5-15.17-8.43-.07-1.5-.17-3-.34-4.46l15.58 2a38.541 38.541 0 0 0-.41 9.45c.039.34.113.675.22 1 0 0 .02.04.04.1Z"/>
  <path fill="#EB9481" d="M494.03 267.8c-.85 5.59 4.26 20.63 8.57 23.52 6.26 4.19 15.36 3.33 18.63-3.93 3.17-7-3.83-26.52-8.54-29-6.94-3.72-17.41 1.14-18.66 9.41Z"/>
  <path fill="#263238" d="M508.43 274.56s-.06.08 0 .12c.37 1 .62 2.22-.18 2.86v.05c1.05-.51.7-2.13.18-3.03Z"/>
  <path fill="#263238" d="M507.17 273.81c-1.67.42-.71 3.73.85 3.34 1.56-.39.58-3.7-.85-3.34Zm7.51-1.13s.1 0 .11.07c.27 1 .75 2.18 1.77 2.25v.06c-1.17.17-1.79-1.35-1.88-2.38Z"/>
  <path fill="#263238" d="M515.29 271.34c1.62-.6 2.71 2.67 1.21 3.23s-2.56-2.72-1.21-3.23Zm-9.87 1.33c.403-.253.791-.53 1.16-.83.43-.32.82-.53 1-1.06a.737.737 0 0 0-.36-.82 1.827 1.827 0 0 0-1.8.33 2.658 2.658 0 0 0-1.15 1.54.774.774 0 0 0 .294.805.767.767 0 0 0 .856.035Zm10.67-3.37c-.473.025-.947.025-1.42 0a2.357 2.357 0 0 1-1.46-.23.74.74 0 0 1-.2-.87 1.79 1.79 0 0 1 1.63-.83 2.66 2.66 0 0 1 1.85.52.783.783 0 0 1 .293.845.775.775 0 0 1-.693.565Z"/>
  <path fill="#263238" d="M511 280.7a3.68 3.68 0 0 0 2.78.88c.439-.043.87-.147 1.28-.31l.23-.1.22-.1a.281.281 0 0 0 .14-.29.418.418 0 0 0 0-.1v-.09c-.21-.79-.63-2-.63-2 .33.07 2 .3 1.85-.11a54.395 54.395 0 0 0-4.44-10.19c0-.11-.22 0-.18.08 1 3.28 2.62 6.35 3.71 9.63a6.385 6.385 0 0 0-1.8 0c-.1.06.86 2.26.93 2.63a4.997 4.997 0 0 1-3.94-.07c-.18-.02-.24.08-.15.14Z"/>
  <path fill="#263238" d="M495.67 278.4c.88-.73 2-4.43 2.52-6 .52-1.57-1.06-8-1.58-9.94a10.521 10.521 0 0 0-2.57 5.35c-.38 2.37.35 6.5 1.63 10.59Z" opacity=".2"/>
  <path fill="#263238" d="M510.4 264.35a5.14 5.14 0 0 1-4 3 5.263 5.263 0 0 1-4.76-1.89c0-.05-.09 0-.06.05a5.205 5.205 0 0 0 4.86 2.26 5.316 5.316 0 0 0 4.12-3.34c-.02-.1-.13-.15-.16-.08Zm-8.64-10.74a8.08 8.08 0 0 0-5.51 5.48 5.73 5.73 0 0 0 .5 3.78h.1a6.356 6.356 0 0 1 1.29-6.34 8.173 8.173 0 0 1 6.71-2.83 5.226 5.226 0 0 1 3.29 1.37c.09.09.28 0 .2-.13-1.29-1.61-4-2.14-6.58-1.33Zm18.45 1.47a6.564 6.564 0 0 0-3.67-2.63c-2.07-.58-4 .15-5.94.92v.08a9.108 9.108 0 0 1 5.1-.87 6.567 6.567 0 0 1 3.75 2.2 6.22 6.22 0 0 1-5.07 10.14c-.06 0-.08.11 0 .11a6.435 6.435 0 0 0 6.014-3.194 6.436 6.436 0 0 0-.214-6.806l.03.05Z"/>
  <path fill="#263238" d="M493.99 271s-4.18-4.37-2.74-8c.82-2.05 5.17-3 5.17-3a8.01 8.01 0 0 1 4-4.67c3.35-1.84 8.21-1 8.21-1s2.86-2.91 6.57-2c5.17 1.29 6.53 8.23 2.66 11.67-2.71 2.42-7.77.84-7.77.84-.4.18-3.89 3.9-8.13 1 0 0-1.93 3-4.71 2.08a3.883 3.883 0 0 1-3.26 3.08Z"/>
  <path fill="#EB9481" d="M499.19 279.91s-4.32-4.4-6.37-2.78c-2.05 1.62 1.78 8.41 4.6 8.95a2.71 2.71 0 0 0 2.125-.301 2.722 2.722 0 0 0 1.245-1.749l-1.6-4.12Z"/>
  <path fill="#263238" d="M493.96 279.08v.07c2 .45 3.26 2 4.25 3.68a1.525 1.525 0 0 0-1.15-.526 1.525 1.525 0 0 0-1.15.526s0 .11.06.09a1.69 1.69 0 0 1 1.008-.169c.345.048.667.201.922.439.424.402.799.851 1.12 1.34.12.15.4 0 .31-.17-.38-2.49-2.73-5.5-5.37-5.28Z"/>
  <path fill="#EBEBEB" d="m515.79 296.36-3.31 9.17-11.6-10.95-3 3.77s11.61 17.65 11.64 16.83l3.41-7.89 5.55 5.19-1-13.51-1.69-2.61Z"/>
  <path fill="#263238" d="M518.37 305.77c-.23-2.22-.4-4.47-.74-6.68 0-.08-.13-.11-.15 0-.36 2.17.57 10.68.64 12.72-.23-.22-5.13-4.55-5.18-4.48-.75 1.26-3.26 7-3.42 7.53-1.84-2.81-8.86-13-11-15.62a.079.079 0 0 0-.094-.007.077.077 0 0 0-.036.087c1.64 3 10.93 16.69 11.06 16.64a85.23 85.23 0 0 0 3.56-8.33c.84.95 5.81 5.85 5.82 5.52a71.958 71.958 0 0 0-.46-7.38Z"/>
  <path fill="#EBEBEB" d="M317.65 113.62V153h39.43v-39.38h-39.43Zm3 36.44v-33.47h33.45v33.47h-33.45Z"/>
  <path fill="#37474F" d="M479.44 103.55H345.67v123.19h133.77V103.55Z"/>
  <path fill="#F7A9A0" d="M436.45 164.64c16.3 16.52 36.8 51.27 33 58.32-4.26 7.85-26.95-15.31-26.87-16.67.07-1-7.91-22.13-14-37.48-6.09-15.35 3.84-8.26 7.87-4.17Z"/>
  <path fill="#fff" d="M442.41 206.32c-.69-2.26-11.56-30.09-14.66-38.9-3.1-8.81-.23-11.52 8.64-3.46 8.87 8.06 28.31 35 32.75 49.29 4.27 13.75-2.82 13.75-12.14 7.42-7.69-5.19-14.59-14.35-14.59-14.35Z"/>
  <path fill="#000" d="M434.85 164.87a7.198 7.198 0 0 1-1.54 3.36 6.806 6.806 0 0 1 .55-1.78c.259-.568.592-1.1.99-1.58Zm26.88 38.28a6.235 6.235 0 0 0-.55 1.78 6.566 6.566 0 0 0 1-1.58 6.83 6.83 0 0 0 .55-1.78 6.223 6.223 0 0 0-1 1.58Zm-9.61-14.63a6.406 6.406 0 0 0-.55 1.79 6.835 6.835 0 0 0 1-1.59 6.587 6.587 0 0 0 .55-1.78 6.712 6.712 0 0 0-1 1.58Zm-10-3.67a6.204 6.204 0 0 0-1.78-.55 7.198 7.198 0 0 0 3.36 1.54 6.492 6.492 0 0 0-1.56-.99h-.02Zm9 14.79a6.394 6.394 0 0 0-1.79-.55 6.826 6.826 0 0 0 1.59 1 6.612 6.612 0 0 0 1.78.55 6.709 6.709 0 0 0-1.56-1h-.02Zm-7.32-25.33a6.223 6.223 0 0 0-1.78-.55 6.547 6.547 0 0 0 1.58 1 6.385 6.385 0 0 0 1.78.55 6.51 6.51 0 0 0-1.56-1h-.02Zm-5.58 19.75a6.75 6.75 0 0 0 .87 1.65 7.243 7.243 0 0 0-1.29-3.47c.065.623.213 1.235.44 1.82h-.02Zm18.83 17.62c.21.588.503 1.144.87 1.65a7.243 7.243 0 0 0-1.29-3.47c.058.624.207 1.237.44 1.82h-.02Zm-12.68-3 .33.39a6.354 6.354 0 0 0 1.53-.82 6.472 6.472 0 0 0-1.84.46l-.02-.03Zm22.31 10.52a6.564 6.564 0 0 0 1.65-.87 6.504 6.504 0 0 0-1.82.42 6.18 6.18 0 0 0-1.65.87 6.943 6.943 0 0 0 1.84-.39l-.02-.03Zm-33.47-40.79c-.408.15-.802.334-1.18.55l.09.25a6.686 6.686 0 0 0 1.25-.35 6.312 6.312 0 0 0 1.66-.87 6.781 6.781 0 0 0-1.8.45l-.02-.03Z" opacity=".1"/>
  <path fill="#fff" d="M440.46 226.77h-62s9.85-48.6 33.61-69.64c2.94-2.6 9.56-2 13.89.14 1.54.77 7.08 8.52 8.66 15.85s6.02 53.43 5.84 53.65Z"/>
  <path fill="#263238" d="M435.2 176.15c.49 1.64.89 3.33 1.22 5a1.335 1.335 0 0 1 0-.2c0-1 0-1.93.13-2.89 0 0 .09-.06.09 0 .127.965.153 1.94.08 2.91 0 .45-.05.91-.09 1.37.13.76.25 1.53.34 2.29.19 1.44.67 6.83.71 7.9 0 .22-.25.26-.31 0-.29-1.08-1.06-6.64-1.31-8.07a78.446 78.446 0 0 1-1-8.37c.03 0 .12 0 .14.06Z"/>
  <path fill="#000" d="M416 169.82a6.586 6.586 0 0 1-.56 1.78 6.24 6.24 0 0 1-1 1.58 6.73 6.73 0 0 1 .56-1.78 6.449 6.449 0 0 1 1-1.58Zm-8.4 24.68a6.255 6.255 0 0 0-.55 1.78 7.198 7.198 0 0 0 1.54-3.36 6.549 6.549 0 0 0-.99 1.58Zm-20.13 8.83a6.427 6.427 0 0 0-.55 1.79 6.733 6.733 0 0 0 1-1.58c.27-.567.455-1.17.55-1.79a6.733 6.733 0 0 0-1 1.58Zm14.8 15.83a6.255 6.255 0 0 0-.55 1.78 7.056 7.056 0 0 0 1.55-3.37 6.466 6.466 0 0 0-1 1.59Zm25.83-30.58a6.8 6.8 0 0 0-.55 1.79 6.466 6.466 0 0 0 1-1.59 6.255 6.255 0 0 0 .55-1.78 7.056 7.056 0 0 0-1 1.58Zm8.14 16.79a6.427 6.427 0 0 0-.55 1.79 6.733 6.733 0 0 0 1-1.58c.27-.567.455-1.17.55-1.79a7.021 7.021 0 0 0-1 1.58Zm-19.7 12.1a7.15 7.15 0 0 0-.55 1.79 6.466 6.466 0 0 0 1-1.59c.27-.564.459-1.163.56-1.78a6.783 6.783 0 0 0-1.01 1.58Zm-18.87-32.73a6.741 6.741 0 0 0-.56 1.78 6.24 6.24 0 0 0 1-1.58c.27-.564.459-1.163.56-1.78a6.449 6.449 0 0 0-1 1.58Zm23.42-5.52a6.235 6.235 0 0 0-1.78-.55 6.547 6.547 0 0 0 1.58 1c.565.265 1.164.45 1.78.55a6.547 6.547 0 0 0-1.58-1Zm3.91 19.94a6.235 6.235 0 0 0-1.78-.55c.479.404 1.01.74 1.58 1a6.576 6.576 0 0 0 1.78.55 6.24 6.24 0 0 0-1.58-1Zm-36.44 21.13a6.586 6.586 0 0 0-1.78-.56 6.24 6.24 0 0 0 1.58 1 6.828 6.828 0 0 0 1.78.56 6.223 6.223 0 0 0-1.58-1Zm37.08 4a6.732 6.732 0 0 0-1.78-.55 6.547 6.547 0 0 0 1.58 1l.38.17c.33 0 .65 0 1 .06a7.167 7.167 0 0 0-1.18-.65v-.03Zm-23.15-20.18a6.576 6.576 0 0 0-1.78-.55 6.24 6.24 0 0 0 1.58 1 6.462 6.462 0 0 0 1.78.55 6.855 6.855 0 0 0-1.58-.97v-.03Zm18.6-42.57a6.586 6.586 0 0 0-1.78-.56 6.547 6.547 0 0 0 1.58 1 7.078 7.078 0 0 0 1.78.55 6.243 6.243 0 0 0-1.58-.96v-.03Zm4 9.25c.208.59.501 1.146.87 1.65a6.813 6.813 0 0 0-.42-1.82 6.664 6.664 0 0 0-.87-1.65c.057.635.205 1.258.44 1.85l-.02-.03Zm9.91 46.15c.206.591.499 1.147.87 1.65a7.243 7.243 0 0 0-1.29-3.47c.052.624.193 1.237.42 1.82Zm-26.59-34.53c.214.587.506 1.142.87 1.65a6.54 6.54 0 0 0-.41-1.82 6.873 6.873 0 0 0-.87-1.65c.037.62.158 1.232.36 1.82h.05Zm7.66 20.3c.208.59.501 1.146.87 1.65a6.619 6.619 0 0 0-.42-1.82 6.732 6.732 0 0 0-.87-1.65c.028.62.146 1.233.35 1.82h.07Zm-35.51 23.81a2.085 2.085 0 0 0 0 .25h.16l-.16-.25Zm17.44-.08a6.561 6.561 0 0 0-.87-1.66c.051.624.192 1.237.42 1.82l.06.17h.5c-.11-.11-.11-.22-.11-.33Zm-3.56-14.31c.212.588.505 1.143.87 1.65a6.435 6.435 0 0 0-.42-1.82 6.358 6.358 0 0 0-.87-1.65 6.62 6.62 0 0 0 .37 1.82h.05Zm15-47.78a6.08 6.08 0 0 0 .87 1.65 6.619 6.619 0 0 0-.42-1.82 6.732 6.732 0 0 0-.87-1.65 6.44 6.44 0 0 0 .38 1.82h.04ZM426 211.18a6.698 6.698 0 0 0 1.65-.87 6.54 6.54 0 0 0-1.82.41 6.873 6.873 0 0 0-1.65.87 6.54 6.54 0 0 0 1.82-.41Zm-16.24 14.92a6.564 6.564 0 0 0 1.65-.87 7.243 7.243 0 0 0-3.47 1.29 6.504 6.504 0 0 0 1.82-.42Zm-27.59-13.51c0 .14-.09.28-.13.42.299-.147.583-.321.85-.52a5.468 5.468 0 0 0-.72.1Zm14.14-17.19a6.561 6.561 0 0 0 1.66-.87 6.435 6.435 0 0 0-1.82.42 6.561 6.561 0 0 0-1.66.87 6.813 6.813 0 0 0 1.82-.42Zm13 16.42A6.56 6.56 0 0 0 411 211a7.243 7.243 0 0 0-3.47 1.29 6.525 6.525 0 0 0 1.79-.47h-.01Zm7.69-23.55a6.938 6.938 0 0 0 1.66-.87 6.435 6.435 0 0 0-1.82.41 6.698 6.698 0 0 0-1.65.87 6.464 6.464 0 0 0 1.81-.41Zm16.35-9.38a6.282 6.282 0 0 0 1.66-.87 6.435 6.435 0 0 0-1.82.42 6.358 6.358 0 0 0-1.65.87 6.465 6.465 0 0 0 1.85-.42h-.04Zm-29.23-5.48a6.564 6.564 0 0 0 1.65-.87 7.243 7.243 0 0 0-3.47 1.29 6.532 6.532 0 0 0 1.86-.42h-.04Z" opacity=".1"/>
  <path fill="#EB9481" d="M358.45 138c-.13-3 .47-16.67 1.49-20.44 1.02-3.77 4.74-14.42 7.71-13.93 2.97.49 2.13 3.69 2.13 3.69s2.28-4.25 5.23-3.49c2.95.76 1.47 5.71 1.47 5.71s2.66-4.19 5.55-3.22c2.89.97.57 5.69.57 5.69s2.25-3.94 4.29-2.14c2.45 2.16-2.53 9-3.34 13.21-.19 1-2.36 19.83-2.36 19.83L358.45 138Z"/>
  <path fill="#263238" d="M382.79 111.63c-3.66 5-4.39 7.84-4.79 13.93 0 .12-.19.13-.19 0-.15-6 .26-9.68 4.74-14.13.22-.2.45-.03.24.2Zm-6.01-2.45c-3.34 5.53-4.16 8.59-5.06 14.93 0 .09-.16.08-.16 0 .36-6.3.85-10 4.91-15 .19-.29.46-.19.31.07Zm-7.04-1.51c-2.84 5.59-3.88 8.91-4 15.18a.123.123 0 0 1-.043.062.124.124 0 0 1-.072.024.124.124 0 0 1-.072-.024.123.123 0 0 1-.043-.062c-.54-6.4.73-10.55 4-15.26.28-.31.41-.27.23.08Z"/>
  <path fill="#EB9481" d="M381 146.84s5.65-5.33 7.62-8.21c1.97-2.88 5.35-16.35 2.48-17.25-3.7-1.15-7.18 6.23-8.41 10.07 0 0-8.56-2.68-12.2 2.08-3.64 4.76 10.51 13.31 10.51 13.31Z"/>
  <path fill="#263238" d="M390 121.4c-4.13 1.38-5.42 6.52-6.9 10.16a.355.355 0 0 1-.243.229.358.358 0 0 1-.327-.069c-3.66-.89-9.08-1.07-12 1.57a.092.092 0 1 1-.14-.12c2.81-3.27 8.15-3.52 12.1-2.3 1.45-3.75 3-8.86 7.55-9.51-.04-.01-.04.03-.04.04Z"/>
  <path fill="#EB9481" d="M415.53 164.38c-3.72 6.44-25.22 26.29-44 29.73-2.54.46-12.22-1.58-14.25-8-3.61-11.44-.72-35.06 1.12-49.28.36-2.77 26.14 2.93 25.47 7.17-.74 4.7-3.5 21.95-3.07 22.15 1.54.71 18-6.41 28.83-8.74 7.7-1.66 8.77 2.01 5.9 6.97Z"/>
  <path fill="#455A64" d="m354.79 143.85 29.38 6.36s-2.67 15-2.15 14.93c.52-.07 21.14-7.61 29.09-8.4 7.95-.79 7.94 2.71 3.91 9.27s-30.43 28.52-43.44 28.52c-6.62 0-12.78-4.24-14-6.27-3.71-6.26-2.79-44.41-2.79-44.41Z"/>
  <path fill="#fff" d="m354.79 143.85 29.38 6.36s-2.67 15-2.15 14.93c.52-.07 21.14-7.61 29.09-8.4 7.95-.79 7.94 2.71 3.91 9.27s-30.43 28.52-43.44 28.52c-6.62 0-12.78-4.24-14-6.27-3.71-6.26-2.79-44.41-2.79-44.41Z"/>
  <path fill="#000" d="M396.89 164.77a6.576 6.576 0 0 0-.55 1.78 6.24 6.24 0 0 0 1-1.58c.27-.563.455-1.163.55-1.78a6.852 6.852 0 0 0-1 1.58ZM373.55 191a6.235 6.235 0 0 0-.55 1.78 7.198 7.198 0 0 0 1.54-3.36 6.715 6.715 0 0 0-.99 1.58Zm-17.3-18a6.287 6.287 0 0 0-.56 1.78 6.547 6.547 0 0 0 1-1.58 6.985 6.985 0 0 0 .55-1.78 6.45 6.45 0 0 0-.99 1.58Zm25.57.07a6.8 6.8 0 0 0-.55 1.79 6.296 6.296 0 0 0 1-1.59c.27-.564.459-1.163.56-1.78a6.675 6.675 0 0 0-1.01 1.59v-.01ZM369 180.49a6.806 6.806 0 0 0-.55 1.78 6.24 6.24 0 0 0 1-1.58c.27-.564.459-1.163.56-1.78a6.615 6.615 0 0 0-1.01 1.58Zm1.14-18.06a6.462 6.462 0 0 0-.55 1.78 7.198 7.198 0 0 0 1.54-3.36 6.54 6.54 0 0 0-1.04 1.58h.05ZM357 149a6.586 6.586 0 0 0-.56 1.78 5.996 5.996 0 0 0 1-1.58 6.705 6.705 0 0 0 .56-1.78 6.547 6.547 0 0 0-1 1.58Zm52.83 15.17a6.564 6.564 0 0 0-.87-1.65c.051.624.192 1.237.42 1.82.204.589.494 1.145.86 1.65a6.492 6.492 0 0 0-.39-1.81l-.02-.01Zm-17.4 12a6.664 6.664 0 0 0-.87-1.65c.052.624.193 1.237.42 1.82.206.59.499 1.147.87 1.65a6.82 6.82 0 0 0-.4-1.8l-.02-.02Zm-13.07-13.53a6.564 6.564 0 0 0-.87-1.65 7.243 7.243 0 0 0 1.29 3.47 6.503 6.503 0 0 0-.4-1.8l-.02-.02Zm-1.69 19.58a6.564 6.564 0 0 0-.87-1.65c.052.624.193 1.237.42 1.82.208.59.501 1.146.87 1.65a6.503 6.503 0 0 0-.4-1.8l-.02-.02Zm-16.76-2.11a6.358 6.358 0 0 0-.87-1.65 6.98 6.98 0 0 0 .42 1.82c.21.589.503 1.144.87 1.65a6.432 6.432 0 0 0-.4-1.8l-.02-.02Zm5.29-27.68a6.561 6.561 0 0 0-.87-1.66c.049.626.187 1.243.41 1.83.216.586.508 1.141.87 1.65a6.417 6.417 0 0 0-.39-1.8l-.02-.02Zm-2 15.7a6.664 6.664 0 0 0-.87-1.65c.052.624.193 1.237.42 1.82.208.59.501 1.146.87 1.65a6.453 6.453 0 0 0-.38-1.8l-.04-.02ZM404 173a6.564 6.564 0 0 0-1.65.87 6.619 6.619 0 0 0 1.82-.42 6.564 6.564 0 0 0 1.65-.87 6.504 6.504 0 0 0-1.82.42Zm-31.08-.72a7.057 7.057 0 0 0-1.65.87 6.435 6.435 0 0 0 1.82-.42 6.388 6.388 0 0 0 1.65-.87 6.516 6.516 0 0 0-1.83.38l.01.04Zm2.94-18.46a6.664 6.664 0 0 0-1.65.87 6.48 6.48 0 0 0 1.81-.42 6.066 6.066 0 0 0 1.65-.87 6.44 6.44 0 0 0-1.82.38l.01.04Zm-16.68 5.79a6.664 6.664 0 0 0-1.65.87 7.102 7.102 0 0 0 3.47-1.28 6.811 6.811 0 0 0-1.83.37l.01.04Zm27.73 25a6.873 6.873 0 0 0-1.65.87 7.098 7.098 0 0 0 3.47-1.28 6.53 6.53 0 0 0-1.83.41h.01Zm-22.33 4.89a6.564 6.564 0 0 0-1.65.87 6.435 6.435 0 0 0 1.82-.42 6.388 6.388 0 0 0 1.65-.87 6.51 6.51 0 0 0-1.83.42h.01Zm24.07-24.86a6.664 6.664 0 0 0-1.65.87 7.022 7.022 0 0 0 1.82-.41 7.057 7.057 0 0 0 1.65-.87 6.426 6.426 0 0 0-1.83.41h.01Z" opacity=".1"/>
  <path fill="#263238" d="M382.25 165.27a44.893 44.893 0 0 1-1.17 6.64c-.49 2.22-1.19 4.37-1.84 6.54h-.08c.57-2.18 1-4.41 1.46-6.62.46-2.21.81-4.42 1.38-6.6 0-.16.26-.11.25.04Zm.19-9.52c-3.4-.84-6.84-1.51-10.29-2.16-3.45-.65-6.9-1.32-10.36-1.89-2-.32-3.92-.65-5.89-.91 0 0-.07.08 0 .09 3.39.85 6.84 1.53 10.28 2.21 3.44.68 6.9 1.32 10.35 1.93 2 .34 3.92.65 5.89.9.07.02.12-.14.02-.17Zm9.7 30.01c.54-.48 1.14-.89 1.71-1.33.57-.44 1.1-.87 1.66-1.29l3.4-2.61c2.26-1.75 4.48-3.56 6.72-5.34 1.28-1 2.54-2 3.8-3.08a.054.054 0 0 1 .018-.011.05.05 0 0 1 .021-.002.05.05 0 0 1 .02.005c.006.003.011.008.016.013a.04.04 0 0 1 .01.018c.003.006.004.013.003.02a.046.046 0 0 1-.005.02.055.055 0 0 1-.013.017c-1.54 1.45-3.1 2.88-4.7 4.26l.6-.29c.62-.31 1.22-.64 1.82-1 0 0 .09.05 0 .08-.563.397-1.151.758-1.76 1.08-.3.16-.6.32-.91.46l-.45.19c-.36.31-.72.62-1.09.92a147.03 147.03 0 0 1-6.8 5.23c-.667.46-1.317.91-1.95 1.35-.69.45-1.36.95-2.09 1.36a.06.06 0 0 1-.027-.03.056.056 0 0 1-.003-.04Zm29.16-13.79 3.43-5.22 3.23 4.39-1.32 3.88-3.66.08-1.68-3.13Zm1.68 3.13-6.08 40.43 6.17 14.25 5.57-14.69-2-40.07-3.66.08Z"/>
  <path fill="#F7A9A0" d="M426 166.38c-3.57.86-9.74-4.56-12.19-9-.17-.3.28-3.5.63-7.42.21-2.38.38-5 .37-7.47l15.28 3.61a38.517 38.517 0 0 0-1.41 9.35c-.001.336.036.672.11 1v.17c.3 1.91.62 8.91-2.79 9.76Z"/>
  <path fill="#263238" d="M415.84 142.77c.47 3.22 2.65 13.82 11.36 14a9.585 9.585 0 0 0 1.57-.09 1.206 1.206 0 0 1 0-.17 5.185 5.185 0 0 1-.12-1 38.972 38.972 0 0 1 1.42-9.35l-14.23-3.39Z"/>
  <path fill="#EB9481" d="M411.25 125.46c-1.17 5.53 3.06 20.85 7.2 24 6 4.54 15.14 4.21 18.82-2.85 3.57-6.84-2.29-26.7-6.85-29.47-6.72-4.14-17.42.14-19.17 8.32Z"/>
  <path fill="#263238" d="M424.89 134.54s-.07.07-.06.11c.31 1 .5 2.25-.34 2.85v.05c1.12-.47.86-2.09.4-3.01Z"/>
  <path fill="#263238" d="M423.67 133.71c-1.69.32-.92 3.69.65 3.39 1.57-.3.77-3.66-.65-3.39Zm7.44-.71c0-.05.09 0 .1.07.2 1.05.62 2.22 1.64 2.35v.06c-1.18.09-1.72-1.48-1.74-2.48Z"/>
  <path fill="#263238" d="M431.79 131.68c1.65-.51 2.55 2.83 1 3.3-1.55.47-2.38-2.87-1-3.3Z"/>
  <path fill="#A6A6A6" d="M422 132.48c.43-.22.79-.5 1.2-.76.41-.26.85-.49 1.07-1a.722.722 0 0 0-.31-.83 1.795 1.795 0 0 0-1.82.22 2.678 2.678 0 0 0-1.24 1.47.779.779 0 0 0 1.1.9Zm10.7-2.79c-.473.025-.947.025-1.42 0a2.225 2.225 0 0 1-1.43-.32.733.733 0 0 1-.16-.88 1.812 1.812 0 0 1 1.68-.73 2.648 2.648 0 0 1 1.81.63.788.788 0 0 1 .19.376.786.786 0 0 1-.67.924Z"/>
  <path fill="#263238" d="M426.85 140.79a3.636 3.636 0 0 0 2.74 1c.439-.013.874-.09 1.29-.23l.23-.08.23-.09a.271.271 0 0 0 .15-.28.506.506 0 0 0 0-.11v-.09c-.16-.81-.52-2-.52-2 .33.08 2 .41 1.86 0a55.102 55.102 0 0 0-3.84-10.43.099.099 0 0 0-.053-.057.103.103 0 0 0-.077-.003.1.1 0 0 0-.06.13c.84 3.33 2.25 6.49 3.14 9.82a6.221 6.221 0 0 0-1.79-.12c-.11.06.73 2.31.78 2.68a5.01 5.01 0 0 1-3.94-.3c-.15 0-.22.09-.14.16Z"/>
  <path fill="#263238" d="M430.32 141.42a4.378 4.378 0 0 1-1.47 1.64 2 2 0 0 1-1.14.28c-.89-.07-1-.84-1-1.52.017-.367.081-.73.19-1.08a5.629 5.629 0 0 0 3.42.68Z"/>
  <path fill="#FF9CBD" d="M428.85 143.06a2 2 0 0 1-1.14.28c-.89-.07-1-.84-1-1.52a2.001 2.001 0 0 1 2.14 1.24Z"/>
  <path fill="#000" d="M426.5 127.36a13.115 13.115 0 0 0 1.65-.25c.55-.14 1.06-.39 1.61-.52a9.237 9.237 0 0 1 3.19 0c.09 0 .09.07 0 .06a7.816 7.816 0 0 0-3.33.27 9.908 9.908 0 0 1-2.68.65c-2.109.013-4.16.692-5.86 1.94a9.944 9.944 0 0 1 5.42-2.15Zm-.36-1.46a10.537 10.537 0 0 0 1.57-.23c.52-.13 1-.37 1.53-.49a8.735 8.735 0 0 1 3 0c.09 0 .09.07 0 .06a7.657 7.657 0 0 0-3.16.26 9.231 9.231 0 0 1-2.54.61 9.482 9.482 0 0 0-5.55 1.85 9.515 9.515 0 0 1 5.15-2.06Z" opacity=".2"/>
  <path fill="#A6A6A6" d="M412.77 138.66s-5.36-8.83-4.86-13.94c.22-2.31 3.36-3.86 3.36-3.86a5.22 5.22 0 0 1 1.65-5.25c2.73-2.57 9.34-2 9.34-2s4.28-6.19 10.34-3.74 2.12 9.32 2.12 9.32 2.22 3.16-3.21 5.63c-5.43 2.47-16.1.05-16.1.05.507 3.72.453 7.495-.16 11.2a3.436 3.436 0 0 1-2.48 2.59Z"/>
  <path fill="#A6A6A6" d="M423.3 113.69a10.513 10.513 0 0 0-4.26-.77 11.364 11.364 0 0 0-3.84.6 6.364 6.364 0 0 0-4.49 4.79 4.461 4.461 0 0 0 .85 3.35h.06c-1.4-1.74-.67-4.44.78-5.89a9.658 9.658 0 0 1 6.39-2.37 19.145 19.145 0 0 1 4.47.47c.09-.03.12-.14.04-.18Z"/>
  <path fill="#F7A9A0" d="M415.7 137.85s-4.06-4.64-6.21-3.14c-2.15 1.5 1.3 8.5 4.08 9.2a2.744 2.744 0 0 0 2.144-.182 2.736 2.736 0 0 0 1.346-1.678l-1.36-4.2Z"/>
  <path fill="#263238" d="M410.53 136.69v.07c2 .56 3.14 2.19 4 3.92a1.528 1.528 0 0 0-2.3-.17.06.06 0 0 0 .07.1 1.672 1.672 0 0 1 1.9.38c.383.429.718.899 1 1.4.1.16.4 0 .31-.15-.16-2.44-2.39-5.59-4.98-5.55Z"/>
  <path fill="#455A64" d="M424.59 140a4.719 4.719 0 1 1 2.153-8.491 4.713 4.713 0 0 1 1.559 5.664 4.72 4.72 0 0 1-2.582 2.527 5.08 5.08 0 0 1-1.13.3Zm-1.16-8.74a4.488 4.488 0 0 0-1 .26 4.077 4.077 0 0 0-2.357 5.062 4.08 4.08 0 1 0 3.357-5.322Zm11.64 6c-1.79.24-3.66-1.38-4.27-3.76a5.666 5.666 0 0 1 .16-3.45 2.932 2.932 0 0 1 4.87-1.23 5.479 5.479 0 0 1 1.78 3c.64 2.52-.36 5-2.24 5.43a1.67 1.67 0 0 1-.3.01Zm-1.63-8.63h-.24a2.533 2.533 0 0 0-1.66 1.62 5.06 5.06 0 0 0-.13 3.05c.56 2.19 2.26 3.65 3.8 3.25 1.54-.4 2.35-2.48 1.79-4.67a4.995 4.995 0 0 0-1.57-2.62 2.551 2.551 0 0 0-1.99-.63Z"/>
  <path fill="#455A64" d="m428.33 134.12-.52-.37c.55-.76 1.95-1.95 3.37-1l-.34.53c-1.27-.85-2.46.77-2.51.84Zm-20.08 6.35-.61-.14c.06-.29.68-2.81 2-3.38 1.32-.57 9.62-1.85 10-1.9l.1.62c-2.41.38-8.87 1.44-9.82 1.86-.95.42-1.51 2.25-1.67 2.94Z"/>
  <path fill="#EBEBEB" d="m428.76 156.31-4.27 8.76L414.12 153l-3.41 3.43s9.67 18.78 9.79 18l4.23-7.48 5 5.75.49-13.54-1.46-2.85Z"/>
  <path fill="#263238" d="M430.32 165.94c0-2.24.08-4.49 0-6.73 0-.07-.13-.12-.15 0-.59 2.12-.58 10.68-.73 12.72-.2-.24-4.62-5.07-4.67-5-.89 1.17-4 6.62-4.21 7.12-1.52-3-7.42-13.85-9.27-16.7a.08.08 0 0 0-.098-.022.074.074 0 0 0-.037.039.074.074 0 0 0-.005.053c1.31 3.13 9.1 17.75 9.23 17.72a86.985 86.985 0 0 0 4.43-7.91c.73 1 5.15 6.44 5.19 6.11.234-2.46.34-4.929.32-7.4Z"/>
  <path fill="#F7A9A0" d="M469.43 223c-3.67 5.24-13.66 6.25-38.56 11.12-3.45.68-14.76-22.36-11.12-23.27 4.59-1.15 22.65-4.6 24-4.69 11.41-.76 28.17 13.24 25.68 16.84Z"/>
  <path fill="#F7A9A0" d="M424.74 209.67s-10.56 1.6-15.84 4.15a37.735 37.735 0 0 0-13.6 11.86c-3.8 5.38-9.28 21-5.05 23.38 3.83 2.14 8.62-14.12 8.62-14.12s-7.62 15.77-2.54 17.5c5.08 1.73 9.57-17.44 9.57-17.44s-7.47 16.39-1.95 17.34c4.18.72 9.22-16.44 9.22-16.44s-6.32 14.13-2.06 15.06c4.71 1 10.36-14.53 10.36-14.53 11.22.53 16.78-3.81 20.37-7.37.87-.89-17.1-19.39-17.1-19.39Z"/>
  <path fill="#263238" d="M401.15 229.31c-1 1.82-1.95 3.66-2.74 5.56-.79 1.9-1.53 3.83-2.15 5.79a35.675 35.675 0 0 0-1.67 7.88c.8-4.72 3.55-11.57 4.35-13.47.8-1.9 1.49-3.84 2.29-5.73.02-.05-.05-.07-.08-.03Zm6.92 2.75c-1.13 2.38-2.34 4.7-3.36 7.13-1.02 2.43-1.77 4.8-2.62 7.28-.07.19.06.16.13 0 .95-2.44 2-4.63 3-7.06 1-2.43 1.86-4.91 2.92-7.3 0-.06-.06-.11-.07-.05Zm6.36 1.3a58.075 58.075 0 0 0-4.3 11.29c-.06.19.1.14.16-.06 1.36-3.78 2.4-6.75 4.26-11.17.03-.06-.08-.14-.12-.06Z"/>
  <path fill="#fff" d="M422.54 209.67 444.36 234s22.07-5.06 25.32-10.72c2.14-3.73-14.48-18.82-27-17.06l-20.14 3.45Z"/>
  <path fill="#000" d="M441.91 224.84a6.473 6.473 0 0 1-.55 1.78 6.258 6.258 0 0 1-1 1.58 6.566 6.566 0 0 1 .55-1.78c.26-.57.596-1.102 1-1.58Zm15.16-1.37a6.79 6.79 0 0 0-.55 1.79 6.485 6.485 0 0 0 1-1.59c.27-.564.459-1.164.56-1.78a6.783 6.783 0 0 0-1.01 1.58Zm-10.81-5.1a6.204 6.204 0 0 0-1.78-.55 7.198 7.198 0 0 0 3.36 1.54 6.518 6.518 0 0 0-1.58-.99Zm10.81-6.69c.21.588.503 1.144.87 1.65a7.243 7.243 0 0 0-1.29-3.47 6.52 6.52 0 0 0 .42 1.82ZM435 216.94c.206.59.499 1.146.87 1.65a7.243 7.243 0 0 0-1.29-3.47 6.52 6.52 0 0 0 .42 1.82Zm-9-5.76a6.732 6.732 0 0 0 1.65-.87 6.47 6.47 0 0 0-1.82.41 6.838 6.838 0 0 0-1.65.87 6.54 6.54 0 0 0 1.82-.41Zm18.58-2a6.732 6.732 0 0 0 1.65-.87 6.54 6.54 0 0 0-1.82.41 7.02 7.02 0 0 0-1.65.87 6.835 6.835 0 0 0 1.8-.42l.02.01Zm6.88 21.36a6.564 6.564 0 0 0 1.65-.87 6.4 6.4 0 0 0-1.82.42c-.59.207-1.146.5-1.65.87a6.643 6.643 0 0 0 1.8-.43l.02.01Zm16.4-12.12a7.46 7.46 0 0 0-1.31.37 6.5 6.5 0 0 0-1.65.87 6.94 6.94 0 0 0 1.82-.42 6.502 6.502 0 0 0 1.29-.63l-.15-.19Z" opacity=".1"/>
  <path fill="#263238" d="M457.62 210.14a21.735 21.735 0 0 0-15-4c-.06 0-.06.11 0 .11 5.48-.15 12.87 2.71 14.94 3.95.07.07.12-.02.06-.06Zm-7.29 19.76c-2.26-2.8-4.66-5.47-7.08-8.14-2.42-2.67-4.82-5.35-7.3-8-1.4-1.47-2.79-3-4.24-4.38a.05.05 0 0 0-.033-.02.05.05 0 0 0-.037.01.045.045 0 0 0-.019.033.05.05 0 0 0 .009.037c2.26 2.79 4.65 5.48 7 8.16 2.35 2.68 4.82 5.36 7.27 8 1.38 1.49 2.79 3 4.24 4.39.12.1.25.01.19-.09Z"/>
  <path fill="#263238" d="M422.5 209.36a29.84 29.84 0 0 1 4.09-.94c1.37-.25 2.76-.49 4.14-.71 2.75-.44 8.53-1.69 13.61-1.68.06 0-.23.28-.29.27-2.42-.13-19.75 3.32-21.17 3.42.05.1.11.19.15.29a.082.082 0 0 1-.005.115.082.082 0 0 1-.115-.005c-.18-.12-.3-.27-.47-.4a.212.212 0 0 1-.073-.087.208.208 0 0 1-.014-.113.209.209 0 0 1 .05-.102.206.206 0 0 1 .097-.058Zm-120.63 58.83 4.19 10.14-4.19 1.74-4.22-10.21-6.93 5.38v-28.56l19.99 20.2-8.84 1.31ZM291 242.89a3.5 3.5 0 0 1-.5-1.9 3.455 3.455 0 0 1 .5-1.89c.337.572.51 1.226.5 1.89a3.673 3.673 0 0 1-.5 1.9Zm-3.29 1.35a3.55 3.55 0 0 1-1.7-1 3.511 3.511 0 0 1-1-1.69 3.516 3.516 0 0 1 1.69 1c.486.46.835 1.045 1.01 1.69Zm-1.35 3.26a3.673 3.673 0 0 1-1.9.5 3.616 3.616 0 0 1-1.89-.5 3.455 3.455 0 0 1 1.89-.5 3.596 3.596 0 0 1 1.9.5Zm1.35 3.26a3.655 3.655 0 0 1-1 1.69 3.524 3.524 0 0 1-1.69 1 3.476 3.476 0 0 1 1-1.69 3.565 3.565 0 0 1 1.69-1Zm7.87-3.26a3.527 3.527 0 0 1 1.89-.5 3.48 3.48 0 0 1 1.9.5 3.84 3.84 0 0 1-3.79 0Zm-1.35-3.26a3.631 3.631 0 0 1 1-1.7 3.538 3.538 0 0 1 1.7-1 3.531 3.531 0 0 1-1 1.69c-.46.49-1.05.84-1.7 1.01Z"/>
  <path fill="#fff" d="M104.78 340.47a67.106 67.106 0 0 0-2.17 12.31c.11.21.09 1 0 .76 0 .67-1 .55-1-.11v-1.3c-2.4-3-5.89-4.87-8.72-7.47a16.279 16.279 0 0 1-4.77-7.6c-2.34-8.07-.15-16.61-3-24.66-2.42-6.94-6.77-13-10.46-19.25-3.89-6.65-6.75-13.63-7-21.42-.23-6 .48-13.9 5-18.37 4.81-4.74 10.78-1.19 14.47 3 10.68 12.26 15.62 27.76 17.62 43.6 1.1 8.77 2.25 17.59 2 26.44a71.217 71.217 0 0 1-1.97 14.07Z"/>
  <path fill="#263238" d="M102.65 356c.589-8.274.492-16.582-.29-24.84v-.09c.13-6.72.67-13.41.4-20.13a119.095 119.095 0 0 0-3-21.59c0-.08-.15-.06-.13 0a141.056 141.056 0 0 1 2.33 21.11c.14 3.8.11 7.59-.09 11.39-.06 1.23-.18 2.47-.26 3.71a132.916 132.916 0 0 0-20-52.87c-.14-.22-.53 0-.39.24a138.33 138.33 0 0 1 16.26 39.2c-5.14-9.52-12.9-17.34-18.65-26.49 0 0-.12 0-.09.05C84 295.89 92.57 303.92 98 314a144.752 144.752 0 0 1 2.3 12.37 139.067 139.067 0 0 1 1.24 17.18c-3.13-5.85-6.38-11.44-8.94-17.63-.07-.17-.31-.05-.25.11 2.18 6.43 5.11 13.35 9.2 18.83 0 4.07-.09 8.14-.33 12.2-.64 10.85-2.5 21.55-3.35 32.36a.25.25 0 0 0 .49.05 247.142 247.142 0 0 0 4.29-33.47Z"/>
  <path fill="#263238" d="M91.13 272.35c0-.07-.14 0-.12.06 2 5.48 3.1 11 4.54 16.64a.227.227 0 0 0 .25.2.228.228 0 0 0 .2-.25c-.63-5.71-2.66-11.39-4.87-16.65Z"/>
  <path fill="#fff" d="M141.44 295.31a80.879 80.879 0 0 1-4.56 9.36c-3.56 6.48-7.28 12.42-8 20-.3 3.37-.41 6.75-1.43 10a29.941 29.941 0 0 1-4 7.82c-3.86 5.64-8.7 10.49-12.28 16.33a68.7 68.7 0 0 0-8.16 19.68c-.09.38-.68.28-.6-.1a.227.227 0 0 0 0-.09.09.09 0 0 1-.009-.04.09.09 0 0 1 .009-.04c-.57-16.17.72-32.47 5.66-48a166.539 166.539 0 0 1 7.84-20c2.64-5.62 5.93-11 10.57-15.22 3-2.71 9.54-7.85 13.83-5.13 2.09 1.35 1.94 3.42 1.13 5.43Z"/>
  <path fill="#263238" d="M125.19 332a134.015 134.015 0 0 1-9.4 13.51c-1.57 2.05-3.16 4.07-4.72 6.12-.74 1-1.57 1.93-2.25 3 .43-1.7.85-3.4 1.28-5.1 2.09-8.17 4.09-16.42 7.2-24.28a164.043 164.043 0 0 1 11.23-22c.11-.19-.19-.32-.3-.14-3.42 5.62-6.89 11.23-9.76 17.16a87.891 87.891 0 0 0-4.14 10.18 158.013 158.013 0 0 1 5.51-21.76c0-.06-.07-.11-.1 0a74.473 74.473 0 0 0-5.74 22.53c-.7 2.1-1.34 4.22-1.94 6.36-2.55 9.05-4.79 18.19-6.86 27.37a97.009 97.009 0 0 1 1.56-18 .106.106 0 0 0-.04-.055.11.11 0 0 0-.065-.022.11.11 0 0 0-.065.022.106.106 0 0 0-.04.055 56.853 56.853 0 0 0-1.57 19c-.78 3.494-1.543 6.984-2.29 10.47-1.59 7.46-3.54 15.05-4.47 22.62a.153.153 0 0 0 .026.114.148.148 0 0 0 .099.061.151.151 0 0 0 .175-.125c1.11-4.08 1.78-8.31 2.68-12.44.9-4.13 1.85-8.29 2.82-12.42 1.4-6 2.87-12 4.37-18 1-2.2 2.94-4.15 4.39-6 1.59-2 3.19-4 4.74-6.1a91.956 91.956 0 0 0 7.78-12c.08-.13-.06-.24-.11-.13Z"/>
  <path fill="#263238" d="M125.88 325.06a84.158 84.158 0 0 0-9.2 14.62c0 .06.07.13.11.07 3.09-4.85 6.14-9.74 9.23-14.6.05-.08-.09-.15-.14-.09Z"/>
  <path fill="#fff" d="M57 310.65c2.1 3.61 4.49 7.94 3.59 12.28-.57 2.74-2.58 5-2.94 7.77-.81 6.18 5.35 10.26 9.8 13.18 11.11 7.29 26.34 13.78 28.36 28.66.07.53 1 .4.92-.12a.44.44 0 0 0 0-.1v-.08a56.85 56.85 0 0 0-.21-22.73c-1.65-7.67-5-14.56-8.95-21.3-6.68-11.4-13.76-23.08-23.87-31.82-2.7-2.39-8.48-6.76-10.7-1.3-2.17 5.3 1.46 11.16 4 15.56Z"/>
  <path fill="#263238" d="M67.19 334.82c7.36 8 19.07 12.44 25.41 21.37a89.563 89.563 0 0 0-19.53-36.68.29.29 0 0 1 .218-.457.295.295 0 0 1 .192.057 72.306 72.306 0 0 1 16 23.11 103.815 103.815 0 0 0-6.87-17.58.188.188 0 0 1 .014-.211.195.195 0 0 1 .126-.073.206.206 0 0 1 .075.005.206.206 0 0 1 .066.033c.02.015.036.034.049.056a67.009 67.009 0 0 1 7.4 19.76c8.35 20.22 9.13 43.93 7.38 65.24 0 .3-.49.31-.48 0 .48-16.79.21-33.88-3.82-50.28-.08-.35-.18-.68-.26-1-6.9-9.62-18.55-14.07-26-23.2-.16-.11-.05-.23.03-.15Z"/>
  <path fill="#263238" d="M65.48 328c3.87 3.54 7.67 7.17 11.54 10.72v.07a56.36 56.36 0 0 1-11.72-10.56c-.18-.18.02-.4.18-.23Zm-.61-15.39a120.206 120.206 0 0 0 11.57 15.91c0 .07 0 .16-.1.1a55.839 55.839 0 0 1-11.68-15.89c-.06-.13.13-.25.21-.12Z"/>
  <path fill="#455A64" d="M82.27 424.48h33.86l-4.56-45.55H87.49l-5.22 45.55Z"/>
  <path fill="#263238" d="M86.64 386.33h25.67l-.74-7.4H87.49l-.85 7.4Z"/>
  <path fill="#455A64" d="M83.34 381.15h31.74v-7.27H83.34v7.27Z"/>
  <path fill="#263238" d="M376 254v87.17h87.17V254H376Zm82.43 82.42h-77.7v-77.69h77.7v77.69Z"/>
</svg>
