<svg xmlns="http://www.w3.org/2000/svg" width="80" height="80" fill="none" viewBox="0 0 80 80">
  <path fill="#000" d="M53.214 3.698a3.05 3.05 0 0 0-.192-2.178 2.827 2.827 0 0 0-.657-.864 2.6 2.6 0 0 0-.916-.53 2.498 2.498 0 0 0-2.032.206c-.31.176-.583.415-.807.704-.223.29-.39.623-.494.982l-21.33 74.284a3.042 3.042 0 0 0 .192 2.178c.33.67.897 1.171 1.573 1.394a2.508 2.508 0 0 0 2.032-.206 2.82 2.82 0 0 0 1.3-1.686L53.215 3.698Zm-29.99 14.28c.248.265.445.58.58.927a3.036 3.036 0 0 1 0 2.19 2.88 2.88 0 0 1-.58.928L6.44 40l16.782 17.977c.501.536.782 1.264.782 2.023 0 .758-.281 1.486-.782 2.023-.5.536-1.18.837-1.887.837a2.583 2.583 0 0 1-1.888-.837l-18.665-20a2.878 2.878 0 0 1-.58-.928 3.035 3.035 0 0 1 0-2.19c.135-.347.332-.662.58-.928l18.665-20c.247-.266.542-.477.866-.62a2.514 2.514 0 0 1 2.044 0c.323.143.618.354.865.62Zm33.553 0a2.88 2.88 0 0 0-.58.927 3.036 3.036 0 0 0 0 2.19c.134.347.331.663.58.928L73.559 40 56.777 57.977a2.884 2.884 0 0 0-.58.928 3.04 3.04 0 0 0 0 2.19c.135.347.332.662.58.928.248.265.542.476.866.62a2.515 2.515 0 0 0 2.043 0c.324-.144.618-.355.866-.62l18.665-20c.248-.266.445-.58.58-.928a3.036 3.036 0 0 0 0-2.19 2.878 2.878 0 0 0-.58-.928l-18.665-20a2.665 2.665 0 0 0-.866-.62 2.514 2.514 0 0 0-2.044 0 2.664 2.664 0 0 0-.865.62Z"/>
</svg>
